#define pydam_width 16
#define pydam_height 16
static char pydam_bits[] = {
  0x00, 0x00, 0x00, 0x00, 0x00, 0x00, 0x80, 0x00, 0x84, 0x20, 0xA0, 0x04, 
  0x20, 0x04, 0x00, 0x13, 0xD0, 0x0F, 0x70, 0x1D, 0xB0, 0x07, 0xD0, 0x09, 
  0x70, 0x0F, 0x10, 0x00, 0x00, 0x00, 0x00, 0x00, };
